/* XPM */
static char *result[] = {
/* columns rows colors chars-per-pixel */
"64 64 52 1 ",
"  c white",
". c #FEFEFE",
"X c #FFFAF4",
"o c #FFDAA6",
"O c #FFBD66",
"+ c #FFAA35",
"@ c #FF9D14",
"# c #FF9707",
"$ c #FFAB36",
"% c #FFBF68",
"& c #FFD9A8",
"* c #FEFBF4",
"= c #FEFFFF",
"- c #FFFEFF",
"; c #FFF0D9",
": c #FFBE64",
"> c #FF980B",
", c #FF9200",
"< c #FF9400",
"1 c #FF9300",
"2 c #FDF1DB",
"3 c #FFFCF7",
"4 c #FDC674",
"5 c #FF9606",
"6 c #FF9501",
"7 c #FF9503",
"8 c #FFEFDB",
"9 c #FDA72C",
"0 c #FE9500",
"q c #FE9400",
"w c #FF9201",
"e c #FF9403",
"r c #FDECD0",
"t c #FF9D18",
"y c #FF9302",
"u c #FF9202",
"i c #FFF0DB",
"p c #FF9E19",
"a c #FFA82D",
"s c #FEC574",
"d c #FD9300",
"f c #FD9706",
"g c #FEEFDA",
"h c #FFFAF6",
"j c #FE990B",
"k c #FEDAA6",
"l c #FFDBA7",
"z c #FD9400",
"x c #FEBE66",
"c c #FFAB37",
"v c #FE9C13",
"b c #FFDAAB",
/* pixels */
"                                                                ",
"                                                                ",
"                                                                ",
"                                                                ",
"                                                                ",
"                                                                ",
"                                                                ",
"                                                                ",
"                                                                ",
"                                                                ",
"                                                                ",
"                                                                ",
"                                                                ",
"                                                                ",
"                                                                ",
"                                                                ",
"                       .  XoO+@##@$%&*  .                       ",
"                   =.-  ;:>,<<<<<<1<,>:2  -.=                   ",
"                .=    345<<617<<<<616<<543    =.                ",
"                     8910<61q,0<6q,qwe<<198                     ",
"                .  -rtyq16<e16u<<1616<<1qytr-  .                ",
"                   ip<11<<q,q,<q1q16,q<<11<pi                   ",
"                  3ay<<<<<<6,<1q<1<16<q1<<<ya3                  ",
"                  s<<1<dy<<<<1y<<<<<<<<<d<1<<s                  ",
"                 856<<<<<<<<<<<<<<<<<<<<<<1<<fg                 ",
"                 :<0eq<<<<<<<<<<<<<<<<<<<<<y<<:=                ",
"                hjd6<<<<<<<<<<<<<<<<<<<<<<<<<<>h                ",
"                k1<<<<<<<<<<<<<<<<<<<<<<<<<<<11l                ",
"                Oz<<<<10<<<<<<<<<<<<<<<<<<<<<<zx                ",
"                c16<y<<<<<<<<<<<<<<<<<<<<<<y<61c                ",
"                @<<1d<<<<<<<<<<<<<<<<<<<<1<<<<dv                ",
"                #<<<y<<<<<<<<<<<<<<<<<<<<<<y1<<#                ",
"                #<<<y<<<<<<<<<<<<<<<<<<<<<<<1<<#                ",
"                @<<1d<<<<<<<<<<<<<<<<<<<y1<<<<zv                ",
"                c16<y<<<<<<<<<<<<<<<<<<<<<<<<61$                ",
"                Oz<<<<10<<<<<<<<<<<<<<<<<<<<<<dx                ",
"                k1<<<<<<<<<<<<<<<<<<<<<<<<<<<uub                ",
"                hjd6<<<<<<<<<<<<<<<<<<<<<<<<<<>X                ",
"                 :<0eq<<<<<<<<<<<<<<<<<<y<<y<<:=                ",
"                 856<<<<<<<<<<<<<<<<<<<<<<1<<fg                 ",
"                  s<<1<dy<<<<1y<<y1<<<<yd<1<<s                  ",
"                  3ay<<<<<<6,<1qq1<,6<<<<<<ya3                  ",
"                   ip<11<<q,q,<qq<,q,q<<11<pi                   ",
"                .  -rtyq16<e16u<<u61e<61qytr-  .                ",
"                     8910<61q,0<<0,q16<0198                     ",
"                .=    345<<617<<<<716<<543    =.                ",
"                   =.-  ;:>,<<<<<<<<,>:;  -.=                   ",
"                       .  XoO+@##@+OoX  .                       ",
"                                                                ",
"                                                                ",
"                                                                ",
"                                                                ",
"                                                                ",
"                                                                ",
"                                                                ",
"                                                                ",
"                                                                ",
"                                                                ",
"                                                                ",
"                                                                ",
"                                                                ",
"                                                                ",
"                                                                ",
"                                                                "
};
