/* XPM */
static char *result[] = {
/* columns rows colors chars-per-pixel */
"64 64 9 1 ",
"  c #CC0001",
". c #01CC00",
"X c #FB940B",
"o c #FFFF01",
"O c #762CA7",
"+ c #0000FE",
"@ c #03C0C6",
"# c #FE98BF",
"$ c white",
/* pixels */
"################################################################",
"################################################################",
"##$$$$$$$$$$$$$$$$$$$$$$$$$$$$$$$$$$$$$$$$$$$$$$$$$$$$$$$$$$$$##",
"##$$$$$$$$$$$$$$$$$$$$$$$$$$$$$$$$$$$$$$$$$$$$$$$$$$$$$$$$$$$$##",
"##$$                                                        $$##",
"##$$                                                        $$##",
"##$$  $$$$$$$$$$$$$$$$$$$$$$$$$$$$$$$$$$$$$$$$$$$$$$$$$$$$  $$##",
"##$$  $$$$$$$$$$$$$$$$$$$$$$$$$$$$$$$$$$$$$$$$$$$$$$$$$$$$  $$##",
"##$$  $$XXXXXXXXXXXXXXXXXXXXXXXXXXXXXXXXXXXXXXXXXXXXXXXX$$  $$##",
"##$$  $$XXXXXXXXXXXXXXXXXXXXXXXXXXXXXXXXXXXXXXXXXXXXXXXX$$  $$##",
"##$$  $$XX$$$$$$$$$$$$$$$$$$$$$$$$$$$$$$$$$$$$$$$$$$$$XX$$  $$##",
"##$$  $$XX$$$$$$$$$$$$$$$$$$$$$$$$$$$$$$$$$$$$$$$$$$$$XX$$  $$##",
"##$$  $$XX$$oooooooooooooooooooooooooooooooooooooooo$$XX$$  $$##",
"##$$  $$XX$$oooooooooooooooooooooooooooooooooooooooo$$XX$$  $$##",
"##$$  $$XX$$oo$$$$$$$$$$$$$$$$$$$$$$$$$$$$$$$$$$$$oo$$XX$$  $$##",
"##$$  $$XX$$oo$$$$$$$$$$$$$$$$$$$$$$$$$$$$$$$$$$$$oo$$XX$$  $$##",
"##$$  $$XX$$oo$$................................$$oo$$XX$$  $$##",
"##$$  $$XX$$oo$$................................$$oo$$XX$$  $$##",
"##$$  $$XX$$oo$$..$$$$$$$$$$$$$$$$$$$$$$$$$$$$..$$oo$$XX$$  $$##",
"##$$  $$XX$$oo$$..$$$$$$$$$$$$$$$$$$$$$$$$$$$$..$$oo$$XX$$  $$##",
"##$$  $$XX$$oo$$..$$@@@@@@@@@@@@@@@@@@@@@@@@$$..$$oo$$XX$$  $$##",
"##$$  $$XX$$oo$$..$$@@@@@@@@@@@@@@@@@@@@@@@@$$..$$oo$$XX$$  $$##",
"##$$  $$XX$$oo$$..$$@@$$$$$$$$$$$$$$$$$$$$@@$$..$$oo$$XX$$  $$##",
"##$$  $$XX$$oo$$..$$@@$$$$$$$$$$$$$$$$$$$$@@$$..$$oo$$XX$$  $$##",
"##$$  $$XX$$oo$$..$$@@$$++++++++++++++++$$@@$$..$$oo$$XX$$  $$##",
"##$$  $$XX$$oo$$..$$@@$$++++++++++++++++$$@@$$..$$oo$$XX$$  $$##",
"##$$  $$XX$$oo$$..$$@@$$++$$$$$$$$$$$$++$$@@$$..$$oo$$XX$$  $$##",
"##$$  $$XX$$oo$$..$$@@$$++$$$$$$$$$$$$++$$@@$$..$$oo$$XX$$  $$##",
"##$$  $$XX$$oo$$..$$@@$$++$$OOOOOOOO$$++$$@@$$..$$oo$$XX$$  $$##",
"##$$  $$XX$$oo$$..$$@@$$++$$OOOOOOOO$$++$$@@$$..$$oo$$XX$$  $$##",
"##$$  $$XX$$oo$$..$$@@$$++$$OO$$$$OO$$++$$@@$$..$$oo$$XX$$  $$##",
"##$$  $$XX$$oo$$..$$@@$$++$$OO$$$$OO$$++$$@@$$..$$oo$$XX$$  $$##",
"##$$  $$XX$$oo$$..$$@@$$++$$OO$$$$OO$$++$$@@$$..$$oo$$XX$$  $$##",
"##$$  $$XX$$oo$$..$$@@$$++$$OO$$$$OO$$++$$@@$$..$$oo$$XX$$  $$##",
"##$$  $$XX$$oo$$..$$@@$$++$$OOOOOOOO$$++$$@@$$..$$oo$$XX$$  $$##",
"##$$  $$XX$$oo$$..$$@@$$++$$OOOOOOOO$$++$$@@$$..$$oo$$XX$$  $$##",
"##$$  $$XX$$oo$$..$$@@$$++$$$$$$$$$$$$++$$@@$$..$$oo$$XX$$  $$##",
"##$$  $$XX$$oo$$..$$@@$$++$$$$$$$$$$$$++$$@@$$..$$oo$$XX$$  $$##",
"##$$  $$XX$$oo$$..$$@@$$++++++++++++++++$$@@$$..$$oo$$XX$$  $$##",
"##$$  $$XX$$oo$$..$$@@$$++++++++++++++++$$@@$$..$$oo$$XX$$  $$##",
"##$$  $$XX$$oo$$..$$@@$$$$$$$$$$$$$$$$$$$$@@$$..$$oo$$XX$$  $$##",
"##$$  $$XX$$oo$$..$$@@$$$$$$$$$$$$$$$$$$$$@@$$..$$oo$$XX$$  $$##",
"##$$  $$XX$$oo$$..$$@@@@@@@@@@@@@@@@@@@@@@@@$$..$$oo$$XX$$  $$##",
"##$$  $$XX$$oo$$..$$@@@@@@@@@@@@@@@@@@@@@@@@$$..$$oo$$XX$$  $$##",
"##$$  $$XX$$oo$$..$$$$$$$$$$$$$$$$$$$$$$$$$$$$..$$oo$$XX$$  $$##",
"##$$  $$XX$$oo$$..$$$$$$$$$$$$$$$$$$$$$$$$$$$$..$$oo$$XX$$  $$##",
"##$$  $$XX$$oo$$................................$$oo$$XX$$  $$##",
"##$$  $$XX$$oo$$................................$$oo$$XX$$  $$##",
"##$$  $$XX$$oo$$$$$$$$$$$$$$$$$$$$$$$$$$$$$$$$$$$$oo$$XX$$  $$##",
"##$$  $$XX$$oo$$$$$$$$$$$$$$$$$$$$$$$$$$$$$$$$$$$$oo$$XX$$  $$##",
"##$$  $$XX$$oooooooooooooooooooooooooooooooooooooooo$$XX$$  $$##",
"##$$  $$XX$$oooooooooooooooooooooooooooooooooooooooo$$XX$$  $$##",
"##$$  $$XX$$$$$$$$$$$$$$$$$$$$$$$$$$$$$$$$$$$$$$$$$$$$XX$$  $$##",
"##$$  $$XX$$$$$$$$$$$$$$$$$$$$$$$$$$$$$$$$$$$$$$$$$$$$XX$$  $$##",
"##$$  $$XXXXXXXXXXXXXXXXXXXXXXXXXXXXXXXXXXXXXXXXXXXXXXXX$$  $$##",
"##$$  $$XXXXXXXXXXXXXXXXXXXXXXXXXXXXXXXXXXXXXXXXXXXXXXXX$$  $$##",
"##$$  $$$$$$$$$$$$$$$$$$$$$$$$$$$$$$$$$$$$$$$$$$$$$$$$$$$$  $$##",
"##$$  $$$$$$$$$$$$$$$$$$$$$$$$$$$$$$$$$$$$$$$$$$$$$$$$$$$$  $$##",
"##$$                                                        $$##",
"##$$                                                        $$##",
"##$$$$$$$$$$$$$$$$$$$$$$$$$$$$$$$$$$$$$$$$$$$$$$$$$$$$$$$$$$$$##",
"##$$$$$$$$$$$$$$$$$$$$$$$$$$$$$$$$$$$$$$$$$$$$$$$$$$$$$$$$$$$$##",
"################################################################",
"################################################################"
};
