/* XPM */
static char *result[] = {
/* columns rows colors chars-per-pixel */
"64 64 9 1 ",
"  c #CC0001",
". c #01CC00",
"X c #FB940B",
"o c #FFFF01",
"O c #762CA7",
"+ c #0000FE",
"@ c #03C0C6",
"# c #FE98BF",
"$ c white",
/* pixels */
"OOOOOOOOOOOOOOOOOOOOOOOOOOOOOOOOOOOOOOOOOOOOOOOOOOOOOOOOOOOOOOOO",
"OOOOOOOOOOOOOOOOOOOOOOOOOOOOOOOOOOOOOOOOOOOOOOOOOOOOOOOOOOOOOOOO",
"OO$$$$$$$$$$$$$$$$$$$$$$$$$$$$$$$$$$$$$$$$$$$$$$$$$$$$$$$$$$$$OO",
"OO$$$$$$$$$$$$$$$$$$$$$$$$$$$$$$$$$$$$$$$$$$$$$$$$$$$$$$$$$$$$OO",
"OO$$########################################################$$OO",
"OO$$########################################################$$OO",
"OO$$##$$$$$$$$$$$$$$$$$$$$$$$$$$$$$$$$$$$$$$$$$$$$$$$$$$$$##$$OO",
"OO$$##$$$$$$$$$$$$$$$$$$$$$$$$$$$$$$$$$$$$$$$$$$$$$$$$$$$$##$$OO",
"OO$$##$$                                                $$##$$OO",
"OO$$##$$                                                $$##$$OO",
"OO$$##$$  $$$$$$$$$$$$$$$$$$$$$$$$$$$$$$$$$$$$$$$$$$$$  $$##$$OO",
"OO$$##$$  $$$$$$$$$$$$$$$$$$$$$$$$$$$$$$$$$$$$$$$$$$$$  $$##$$OO",
"OO$$##$$  $$XXXXXXXXXXXXXXXXXXXXXXXXXXXXXXXXXXXXXXXX$$  $$##$$OO",
"OO$$##$$  $$XXXXXXXXXXXXXXXXXXXXXXXXXXXXXXXXXXXXXXXX$$  $$##$$OO",
"OO$$##$$  $$XX$$$$$$$$$$$$$$$$$$$$$$$$$$$$$$$$$$$$XX$$  $$##$$OO",
"OO$$##$$  $$XX$$$$$$$$$$$$$$$$$$$$$$$$$$$$$$$$$$$$XX$$  $$##$$OO",
"OO$$##$$  $$XX$$oooooooooooooooooooooooooooooooo$$XX$$  $$##$$OO",
"OO$$##$$  $$XX$$oooooooooooooooooooooooooooooooo$$XX$$  $$##$$OO",
"OO$$##$$  $$XX$$oo$$$$$$$$$$$$$$$$$$$$$$$$$$$$oo$$XX$$  $$##$$OO",
"OO$$##$$  $$XX$$oo$$$$$$$$$$$$$$$$$$$$$$$$$$$$oo$$XX$$  $$##$$OO",
"OO$$##$$  $$XX$$oo$$........................$$oo$$XX$$  $$##$$OO",
"OO$$##$$  $$XX$$oo$$........................$$oo$$XX$$  $$##$$OO",
"OO$$##$$  $$XX$$oo$$..$$$$$$$$$$$$$$$$$$$$..$$oo$$XX$$  $$##$$OO",
"OO$$##$$  $$XX$$oo$$..$$$$$$$$$$$$$$$$$$$$..$$oo$$XX$$  $$##$$OO",
"OO$$##$$  $$XX$$oo$$..$$@@@@@@@@@@@@@@@@$$..$$oo$$XX$$  $$##$$OO",
"OO$$##$$  $$XX$$oo$$..$$@@@@@@@@@@@@@@@@$$..$$oo$$XX$$  $$##$$OO",
"OO$$##$$  $$XX$$oo$$..$$@@$$$$$$$$$$$$@@$$..$$oo$$XX$$  $$##$$OO",
"OO$$##$$  $$XX$$oo$$..$$@@$$$$$$$$$$$$@@$$..$$oo$$XX$$  $$##$$OO",
"OO$$##$$  $$XX$$oo$$..$$@@$$++++++++$$@@$$..$$oo$$XX$$  $$##$$OO",
"OO$$##$$  $$XX$$oo$$..$$@@$$++++++++$$@@$$..$$oo$$XX$$  $$##$$OO",
"OO$$##$$  $$XX$$oo$$..$$@@$$++$$$$++$$@@$$..$$oo$$XX$$  $$##$$OO",
"OO$$##$$  $$XX$$oo$$..$$@@$$++$$$$++$$@@$$..$$oo$$XX$$  $$##$$OO",
"OO$$##$$  $$XX$$oo$$..$$@@$$++$$$$++$$@@$$..$$oo$$XX$$  $$##$$OO",
"OO$$##$$  $$XX$$oo$$..$$@@$$++$$$$++$$@@$$..$$oo$$XX$$  $$##$$OO",
"OO$$##$$  $$XX$$oo$$..$$@@$$++++++++$$@@$$..$$oo$$XX$$  $$##$$OO",
"OO$$##$$  $$XX$$oo$$..$$@@$$++++++++$$@@$$..$$oo$$XX$$  $$##$$OO",
"OO$$##$$  $$XX$$oo$$..$$@@$$$$$$$$$$$$@@$$..$$oo$$XX$$  $$##$$OO",
"OO$$##$$  $$XX$$oo$$..$$@@$$$$$$$$$$$$@@$$..$$oo$$XX$$  $$##$$OO",
"OO$$##$$  $$XX$$oo$$..$$@@@@@@@@@@@@@@@@$$..$$oo$$XX$$  $$##$$OO",
"OO$$##$$  $$XX$$oo$$..$$@@@@@@@@@@@@@@@@$$..$$oo$$XX$$  $$##$$OO",
"OO$$##$$  $$XX$$oo$$..$$$$$$$$$$$$$$$$$$$$..$$oo$$XX$$  $$##$$OO",
"OO$$##$$  $$XX$$oo$$..$$$$$$$$$$$$$$$$$$$$..$$oo$$XX$$  $$##$$OO",
"OO$$##$$  $$XX$$oo$$........................$$oo$$XX$$  $$##$$OO",
"OO$$##$$  $$XX$$oo$$........................$$oo$$XX$$  $$##$$OO",
"OO$$##$$  $$XX$$oo$$$$$$$$$$$$$$$$$$$$$$$$$$$$oo$$XX$$  $$##$$OO",
"OO$$##$$  $$XX$$oo$$$$$$$$$$$$$$$$$$$$$$$$$$$$oo$$XX$$  $$##$$OO",
"OO$$##$$  $$XX$$oooooooooooooooooooooooooooooooo$$XX$$  $$##$$OO",
"OO$$##$$  $$XX$$oooooooooooooooooooooooooooooooo$$XX$$  $$##$$OO",
"OO$$##$$  $$XX$$$$$$$$$$$$$$$$$$$$$$$$$$$$$$$$$$$$XX$$  $$##$$OO",
"OO$$##$$  $$XX$$$$$$$$$$$$$$$$$$$$$$$$$$$$$$$$$$$$XX$$  $$##$$OO",
"OO$$##$$  $$XXXXXXXXXXXXXXXXXXXXXXXXXXXXXXXXXXXXXXXX$$  $$##$$OO",
"OO$$##$$  $$XXXXXXXXXXXXXXXXXXXXXXXXXXXXXXXXXXXXXXXX$$  $$##$$OO",
"OO$$##$$  $$$$$$$$$$$$$$$$$$$$$$$$$$$$$$$$$$$$$$$$$$$$  $$##$$OO",
"OO$$##$$  $$$$$$$$$$$$$$$$$$$$$$$$$$$$$$$$$$$$$$$$$$$$  $$##$$OO",
"OO$$##$$                                                $$##$$OO",
"OO$$##$$                                                $$##$$OO",
"OO$$##$$$$$$$$$$$$$$$$$$$$$$$$$$$$$$$$$$$$$$$$$$$$$$$$$$$$##$$OO",
"OO$$##$$$$$$$$$$$$$$$$$$$$$$$$$$$$$$$$$$$$$$$$$$$$$$$$$$$$##$$OO",
"OO$$########################################################$$OO",
"OO$$########################################################$$OO",
"OO$$$$$$$$$$$$$$$$$$$$$$$$$$$$$$$$$$$$$$$$$$$$$$$$$$$$$$$$$$$$OO",
"OO$$$$$$$$$$$$$$$$$$$$$$$$$$$$$$$$$$$$$$$$$$$$$$$$$$$$$$$$$$$$OO",
"OOOOOOOOOOOOOOOOOOOOOOOOOOOOOOOOOOOOOOOOOOOOOOOOOOOOOOOOOOOOOOOO",
"OOOOOOOOOOOOOOOOOOOOOOOOOOOOOOOOOOOOOOOOOOOOOOOOOOOOOOOOOOOOOOOO"
};
