/* XPM */
static char *_2df86d2c0004020b78102498be1350d33ZFDKZEdzpXotPs[] = {
/* columns rows colors chars-per-pixel */
"64 64 9 1 ",
"  c #CC0001",
". c #01CC00",
"X c #FB940B",
"o c #FFFF01",
"O c #762CA7",
"+ c #0000FE",
"@ c #03C0C6",
"# c #FE98BF",
"$ c white",
/* pixels */
"++++++++++++++++++++++++++++++++++++++++++++++++++++++++++++++++",
"++++++++++++++++++++++++++++++++++++++++++++++++++++++++++++++++",
"++$$$$$$$$$$$$$$$$$$$$$$$$$$$$$$$$$$$$$$$$$$$$$$$$$$$$$$$$$$$$++",
"++$$$$$$$$$$$$$$$$$$$$$$$$$$$$$$$$$$$$$$$$$$$$$$$$$$$$$$$$$$$$++",
"++$$OOOOOOOOOOOOOOOOOOOOOOOOOOOOOOOOOOOOOOOOOOOOOOOOOOOOOOOO$$++",
"++$$OOOOOOOOOOOOOOOOOOOOOOOOOOOOOOOOOOOOOOOOOOOOOOOOOOOOOOOO$$++",
"++$$OO$$$$$$$$$$$$$$$$$$$$$$$$$$$$$$$$$$$$$$$$$$$$$$$$$$$$OO$$++",
"++$$OO$$$$$$$$$$$$$$$$$$$$$$$$$$$$$$$$$$$$$$$$$$$$$$$$$$$$OO$$++",
"++$$OO$$################################################$$OO$$++",
"++$$OO$$################################################$$OO$$++",
"++$$OO$$##$$$$$$$$$$$$$$$$$$$$$$$$$$$$$$$$$$$$$$$$$$$$##$$OO$$++",
"++$$OO$$##$$$$$$$$$$$$$$$$$$$$$$$$$$$$$$$$$$$$$$$$$$$$##$$OO$$++",
"++$$OO$$##$$                                        $$##$$OO$$++",
"++$$OO$$##$$                                        $$##$$OO$$++",
"++$$OO$$##$$  $$$$$$$$$$$$$$$$$$$$$$$$$$$$$$$$$$$$  $$##$$OO$$++",
"++$$OO$$##$$  $$$$$$$$$$$$$$$$$$$$$$$$$$$$$$$$$$$$  $$##$$OO$$++",
"++$$OO$$##$$  $$XXXXXXXXXXXXXXXXXXXXXXXXXXXXXXXX$$  $$##$$OO$$++",
"++$$OO$$##$$  $$XXXXXXXXXXXXXXXXXXXXXXXXXXXXXXXX$$  $$##$$OO$$++",
"++$$OO$$##$$  $$XX$$$$$$$$$$$$$$$$$$$$$$$$$$$$XX$$  $$##$$OO$$++",
"++$$OO$$##$$  $$XX$$$$$$$$$$$$$$$$$$$$$$$$$$$$XX$$  $$##$$OO$$++",
"++$$OO$$##$$  $$XX$$oooooooooooooooooooooooo$$XX$$  $$##$$OO$$++",
"++$$OO$$##$$  $$XX$$oooooooooooooooooooooooo$$XX$$  $$##$$OO$$++",
"++$$OO$$##$$  $$XX$$oo$$$$$$$$$$$$$$$$$$$$oo$$XX$$  $$##$$OO$$++",
"++$$OO$$##$$  $$XX$$oo$$$$$$$$$$$$$$$$$$$$oo$$XX$$  $$##$$OO$$++",
"++$$OO$$##$$  $$XX$$oo$$................$$oo$$XX$$  $$##$$OO$$++",
"++$$OO$$##$$  $$XX$$oo$$................$$oo$$XX$$  $$##$$OO$$++",
"++$$OO$$##$$  $$XX$$oo$$..$$$$$$$$$$$$..$$oo$$XX$$  $$##$$OO$$++",
"++$$OO$$##$$  $$XX$$oo$$..$$$$$$$$$$$$..$$oo$$XX$$  $$##$$OO$$++",
"++$$OO$$##$$  $$XX$$oo$$..$$@@@@@@@@$$..$$oo$$XX$$  $$##$$OO$$++",
"++$$OO$$##$$  $$XX$$oo$$..$$@@@@@@@@$$..$$oo$$XX$$  $$##$$OO$$++",
"++$$OO$$##$$  $$XX$$oo$$..$$@@$$$$@@$$..$$oo$$XX$$  $$##$$OO$$++",
"++$$OO$$##$$  $$XX$$oo$$..$$@@$$$$@@$$..$$oo$$XX$$  $$##$$OO$$++",
"++$$OO$$##$$  $$XX$$oo$$..$$@@$$$$@@$$..$$oo$$XX$$  $$##$$OO$$++",
"++$$OO$$##$$  $$XX$$oo$$..$$@@$$$$@@$$..$$oo$$XX$$  $$##$$OO$$++",
"++$$OO$$##$$  $$XX$$oo$$..$$@@@@@@@@$$..$$oo$$XX$$  $$##$$OO$$++",
"++$$OO$$##$$  $$XX$$oo$$..$$@@@@@@@@$$..$$oo$$XX$$  $$##$$OO$$++",
"++$$OO$$##$$  $$XX$$oo$$..$$$$$$$$$$$$..$$oo$$XX$$  $$##$$OO$$++",
"++$$OO$$##$$  $$XX$$oo$$..$$$$$$$$$$$$..$$oo$$XX$$  $$##$$OO$$++",
"++$$OO$$##$$  $$XX$$oo$$................$$oo$$XX$$  $$##$$OO$$++",
"++$$OO$$##$$  $$XX$$oo$$................$$oo$$XX$$  $$##$$OO$$++",
"++$$OO$$##$$  $$XX$$oo$$$$$$$$$$$$$$$$$$$$oo$$XX$$  $$##$$OO$$++",
"++$$OO$$##$$  $$XX$$oo$$$$$$$$$$$$$$$$$$$$oo$$XX$$  $$##$$OO$$++",
"++$$OO$$##$$  $$XX$$oooooooooooooooooooooooo$$XX$$  $$##$$OO$$++",
"++$$OO$$##$$  $$XX$$oooooooooooooooooooooooo$$XX$$  $$##$$OO$$++",
"++$$OO$$##$$  $$XX$$$$$$$$$$$$$$$$$$$$$$$$$$$$XX$$  $$##$$OO$$++",
"++$$OO$$##$$  $$XX$$$$$$$$$$$$$$$$$$$$$$$$$$$$XX$$  $$##$$OO$$++",
"++$$OO$$##$$  $$XXXXXXXXXXXXXXXXXXXXXXXXXXXXXXXX$$  $$##$$OO$$++",
"++$$OO$$##$$  $$XXXXXXXXXXXXXXXXXXXXXXXXXXXXXXXX$$  $$##$$OO$$++",
"++$$OO$$##$$  $$$$$$$$$$$$$$$$$$$$$$$$$$$$$$$$$$$$  $$##$$OO$$++",
"++$$OO$$##$$  $$$$$$$$$$$$$$$$$$$$$$$$$$$$$$$$$$$$  $$##$$OO$$++",
"++$$OO$$##$$                                        $$##$$OO$$++",
"++$$OO$$##$$                                        $$##$$OO$$++",
"++$$OO$$##$$$$$$$$$$$$$$$$$$$$$$$$$$$$$$$$$$$$$$$$$$$$##$$OO$$++",
"++$$OO$$##$$$$$$$$$$$$$$$$$$$$$$$$$$$$$$$$$$$$$$$$$$$$##$$OO$$++",
"++$$OO$$################################################$$OO$$++",
"++$$OO$$################################################$$OO$$++",
"++$$OO$$$$$$$$$$$$$$$$$$$$$$$$$$$$$$$$$$$$$$$$$$$$$$$$$$$$OO$$++",
"++$$OO$$$$$$$$$$$$$$$$$$$$$$$$$$$$$$$$$$$$$$$$$$$$$$$$$$$$OO$$++",
"++$$OOOOOOOOOOOOOOOOOOOOOOOOOOOOOOOOOOOOOOOOOOOOOOOOOOOOOOOO$$++",
"++$$OOOOOOOOOOOOOOOOOOOOOOOOOOOOOOOOOOOOOOOOOOOOOOOOOOOOOOOO$$++",
"++$$$$$$$$$$$$$$$$$$$$$$$$$$$$$$$$$$$$$$$$$$$$$$$$$$$$$$$$$$$$++",
"++$$$$$$$$$$$$$$$$$$$$$$$$$$$$$$$$$$$$$$$$$$$$$$$$$$$$$$$$$$$$++",
"++++++++++++++++++++++++++++++++++++++++++++++++++++++++++++++++",
"++++++++++++++++++++++++++++++++++++++++++++++++++++++++++++++++"
};
