/* XPM */
static char *aaa415edf9e9491982c87e99e6268642YqdxnoDj1wDNCzwT[] = {
/* columns rows colors chars-per-pixel */
"64 64 9 1 ",
"  c #CC0001",
". c #01CC00",
"X c #FB940B",
"o c #FFFF01",
"O c #762CA7",
"+ c #0000FE",
"@ c #03C0C6",
"# c #FE98BF",
"$ c white",
/* pixels */
"@@@@@@@@@@@@@@@@@@@@@@@@@@@@@@@@@@@@@@@@@@@@@@@@@@@@@@@@@@@@@@@@",
"@@@@@@@@@@@@@@@@@@@@@@@@@@@@@@@@@@@@@@@@@@@@@@@@@@@@@@@@@@@@@@@@",
"@@$$$$$$$$$$$$$$$$$$$$$$$$$$$$$$$$$$$$$$$$$$$$$$$$$$$$$$$$$$$$@@",
"@@$$$$$$$$$$$$$$$$$$$$$$$$$$$$$$$$$$$$$$$$$$$$$$$$$$$$$$$$$$$$@@",
"@@$$++++++++++++++++++++++++++++++++++++++++++++++++++++++++$$@@",
"@@$$++++++++++++++++++++++++++++++++++++++++++++++++++++++++$$@@",
"@@$$++$$$$$$$$$$$$$$$$$$$$$$$$$$$$$$$$$$$$$$$$$$$$$$$$$$$$++$$@@",
"@@$$++$$$$$$$$$$$$$$$$$$$$$$$$$$$$$$$$$$$$$$$$$$$$$$$$$$$$++$$@@",
"@@$$++$$OOOOOOOOOOOOOOOOOOOOOOOOOOOOOOOOOOOOOOOOOOOOOOOO$$++$$@@",
"@@$$++$$OOOOOOOOOOOOOOOOOOOOOOOOOOOOOOOOOOOOOOOOOOOOOOOO$$++$$@@",
"@@$$++$$OO$$$$$$$$$$$$$$$$$$$$$$$$$$$$$$$$$$$$$$$$$$$$OO$$++$$@@",
"@@$$++$$OO$$$$$$$$$$$$$$$$$$$$$$$$$$$$$$$$$$$$$$$$$$$$OO$$++$$@@",
"@@$$++$$OO$$########################################$$OO$$++$$@@",
"@@$$++$$OO$$########################################$$OO$$++$$@@",
"@@$$++$$OO$$##$$$$$$$$$$$$$$$$$$$$$$$$$$$$$$$$$$$$##$$OO$$++$$@@",
"@@$$++$$OO$$##$$$$$$$$$$$$$$$$$$$$$$$$$$$$$$$$$$$$##$$OO$$++$$@@",
"@@$$++$$OO$$##$$                                $$##$$OO$$++$$@@",
"@@$$++$$OO$$##$$                                $$##$$OO$$++$$@@",
"@@$$++$$OO$$##$$  $$$$$$$$$$$$$$$$$$$$$$$$$$$$  $$##$$OO$$++$$@@",
"@@$$++$$OO$$##$$  $$$$$$$$$$$$$$$$$$$$$$$$$$$$  $$##$$OO$$++$$@@",
"@@$$++$$OO$$##$$  $$XXXXXXXXXXXXXXXXXXXXXXXX$$  $$##$$OO$$++$$@@",
"@@$$++$$OO$$##$$  $$XXXXXXXXXXXXXXXXXXXXXXXX$$  $$##$$OO$$++$$@@",
"@@$$++$$OO$$##$$  $$XX$$$$$$$$$$$$$$$$$$$$XX$$  $$##$$OO$$++$$@@",
"@@$$++$$OO$$##$$  $$XX$$$$$$$$$$$$$$$$$$$$XX$$  $$##$$OO$$++$$@@",
"@@$$++$$OO$$##$$  $$XX$$oooooooooooooooo$$XX$$  $$##$$OO$$++$$@@",
"@@$$++$$OO$$##$$  $$XX$$oooooooooooooooo$$XX$$  $$##$$OO$$++$$@@",
"@@$$++$$OO$$##$$  $$XX$$oo$$$$$$$$$$$$oo$$XX$$  $$##$$OO$$++$$@@",
"@@$$++$$OO$$##$$  $$XX$$oo$$$$$$$$$$$$oo$$XX$$  $$##$$OO$$++$$@@",
"@@$$++$$OO$$##$$  $$XX$$oo$$........$$oo$$XX$$  $$##$$OO$$++$$@@",
"@@$$++$$OO$$##$$  $$XX$$oo$$........$$oo$$XX$$  $$##$$OO$$++$$@@",
"@@$$++$$OO$$##$$  $$XX$$oo$$..$$$$..$$oo$$XX$$  $$##$$OO$$++$$@@",
"@@$$++$$OO$$##$$  $$XX$$oo$$..$$$$..$$oo$$XX$$  $$##$$OO$$++$$@@",
"@@$$++$$OO$$##$$  $$XX$$oo$$..$$$$..$$oo$$XX$$  $$##$$OO$$++$$@@",
"@@$$++$$OO$$##$$  $$XX$$oo$$..$$$$..$$oo$$XX$$  $$##$$OO$$++$$@@",
"@@$$++$$OO$$##$$  $$XX$$oo$$........$$oo$$XX$$  $$##$$OO$$++$$@@",
"@@$$++$$OO$$##$$  $$XX$$oo$$........$$oo$$XX$$  $$##$$OO$$++$$@@",
"@@$$++$$OO$$##$$  $$XX$$oo$$$$$$$$$$$$oo$$XX$$  $$##$$OO$$++$$@@",
"@@$$++$$OO$$##$$  $$XX$$oo$$$$$$$$$$$$oo$$XX$$  $$##$$OO$$++$$@@",
"@@$$++$$OO$$##$$  $$XX$$oooooooooooooooo$$XX$$  $$##$$OO$$++$$@@",
"@@$$++$$OO$$##$$  $$XX$$oooooooooooooooo$$XX$$  $$##$$OO$$++$$@@",
"@@$$++$$OO$$##$$  $$XX$$$$$$$$$$$$$$$$$$$$XX$$  $$##$$OO$$++$$@@",
"@@$$++$$OO$$##$$  $$XX$$$$$$$$$$$$$$$$$$$$XX$$  $$##$$OO$$++$$@@",
"@@$$++$$OO$$##$$  $$XXXXXXXXXXXXXXXXXXXXXXXX$$  $$##$$OO$$++$$@@",
"@@$$++$$OO$$##$$  $$XXXXXXXXXXXXXXXXXXXXXXXX$$  $$##$$OO$$++$$@@",
"@@$$++$$OO$$##$$  $$$$$$$$$$$$$$$$$$$$$$$$$$$$  $$##$$OO$$++$$@@",
"@@$$++$$OO$$##$$  $$$$$$$$$$$$$$$$$$$$$$$$$$$$  $$##$$OO$$++$$@@",
"@@$$++$$OO$$##$$                                $$##$$OO$$++$$@@",
"@@$$++$$OO$$##$$                                $$##$$OO$$++$$@@",
"@@$$++$$OO$$##$$$$$$$$$$$$$$$$$$$$$$$$$$$$$$$$$$$$##$$OO$$++$$@@",
"@@$$++$$OO$$##$$$$$$$$$$$$$$$$$$$$$$$$$$$$$$$$$$$$##$$OO$$++$$@@",
"@@$$++$$OO$$########################################$$OO$$++$$@@",
"@@$$++$$OO$$########################################$$OO$$++$$@@",
"@@$$++$$OO$$$$$$$$$$$$$$$$$$$$$$$$$$$$$$$$$$$$$$$$$$$$OO$$++$$@@",
"@@$$++$$OO$$$$$$$$$$$$$$$$$$$$$$$$$$$$$$$$$$$$$$$$$$$$OO$$++$$@@",
"@@$$++$$OOOOOOOOOOOOOOOOOOOOOOOOOOOOOOOOOOOOOOOOOOOOOOOO$$++$$@@",
"@@$$++$$OOOOOOOOOOOOOOOOOOOOOOOOOOOOOOOOOOOOOOOOOOOOOOOO$$++$$@@",
"@@$$++$$$$$$$$$$$$$$$$$$$$$$$$$$$$$$$$$$$$$$$$$$$$$$$$$$$$++$$@@",
"@@$$++$$$$$$$$$$$$$$$$$$$$$$$$$$$$$$$$$$$$$$$$$$$$$$$$$$$$++$$@@",
"@@$$++++++++++++++++++++++++++++++++++++++++++++++++++++++++$$@@",
"@@$$++++++++++++++++++++++++++++++++++++++++++++++++++++++++$$@@",
"@@$$$$$$$$$$$$$$$$$$$$$$$$$$$$$$$$$$$$$$$$$$$$$$$$$$$$$$$$$$$$@@",
"@@$$$$$$$$$$$$$$$$$$$$$$$$$$$$$$$$$$$$$$$$$$$$$$$$$$$$$$$$$$$$@@",
"@@@@@@@@@@@@@@@@@@@@@@@@@@@@@@@@@@@@@@@@@@@@@@@@@@@@@@@@@@@@@@@@",
"@@@@@@@@@@@@@@@@@@@@@@@@@@@@@@@@@@@@@@@@@@@@@@@@@@@@@@@@@@@@@@@@"
};
