/* XPM */
static char *_5ded5d0213143e7efd1017cca7b6551bCPKR4Y6Hz50JuCC[] = {
/* columns rows colors chars-per-pixel */
"64 64 9 1 ",
"  c #CC0001",
". c #01CC00",
"X c #FB940B",
"o c #FFFF01",
"O c #762CA7",
"+ c #0000FE",
"@ c #03C0C6",
"# c #FE98BF",
"$ c white",
/* pixels */
"................................................................",
"................................................................",
"..$$$$$$$$$$$$$$$$$$$$$$$$$$$$$$$$$$$$$$$$$$$$$$$$$$$$$$$$$$$$..",
"..$$$$$$$$$$$$$$$$$$$$$$$$$$$$$$$$$$$$$$$$$$$$$$$$$$$$$$$$$$$$..",
"..$$@@@@@@@@@@@@@@@@@@@@@@@@@@@@@@@@@@@@@@@@@@@@@@@@@@@@@@@@$$..",
"..$$@@@@@@@@@@@@@@@@@@@@@@@@@@@@@@@@@@@@@@@@@@@@@@@@@@@@@@@@$$..",
"..$$@@$$$$$$$$$$$$$$$$$$$$$$$$$$$$$$$$$$$$$$$$$$$$$$$$$$$$@@$$..",
"..$$@@$$$$$$$$$$$$$$$$$$$$$$$$$$$$$$$$$$$$$$$$$$$$$$$$$$$$@@$$..",
"..$$@@$$++++++++++++++++++++++++++++++++++++++++++++++++$$@@$$..",
"..$$@@$$++++++++++++++++++++++++++++++++++++++++++++++++$$@@$$..",
"..$$@@$$++$$$$$$$$$$$$$$$$$$$$$$$$$$$$$$$$$$$$$$$$$$$$++$$@@$$..",
"..$$@@$$++$$$$$$$$$$$$$$$$$$$$$$$$$$$$$$$$$$$$$$$$$$$$++$$@@$$..",
"..$$@@$$++$$OOOOOOOOOOOOOOOOOOOOOOOOOOOOOOOOOOOOOOOO$$++$$@@$$..",
"..$$@@$$++$$OOOOOOOOOOOOOOOOOOOOOOOOOOOOOOOOOOOOOOOO$$++$$@@$$..",
"..$$@@$$++$$OO$$$$$$$$$$$$$$$$$$$$$$$$$$$$$$$$$$$$OO$$++$$@@$$..",
"..$$@@$$++$$OO$$$$$$$$$$$$$$$$$$$$$$$$$$$$$$$$$$$$OO$$++$$@@$$..",
"..$$@@$$++$$OO$$################################$$OO$$++$$@@$$..",
"..$$@@$$++$$OO$$################################$$OO$$++$$@@$$..",
"..$$@@$$++$$OO$$##$$$$$$$$$$$$$$$$$$$$$$$$$$$$##$$OO$$++$$@@$$..",
"..$$@@$$++$$OO$$##$$$$$$$$$$$$$$$$$$$$$$$$$$$$##$$OO$$++$$@@$$..",
"..$$@@$$++$$OO$$##$$                        $$##$$OO$$++$$@@$$..",
"..$$@@$$++$$OO$$##$$                        $$##$$OO$$++$$@@$$..",
"..$$@@$$++$$OO$$##$$  $$$$$$$$$$$$$$$$$$$$  $$##$$OO$$++$$@@$$..",
"..$$@@$$++$$OO$$##$$  $$$$$$$$$$$$$$$$$$$$  $$##$$OO$$++$$@@$$..",
"..$$@@$$++$$OO$$##$$  $$XXXXXXXXXXXXXXXX$$  $$##$$OO$$++$$@@$$..",
"..$$@@$$++$$OO$$##$$  $$XXXXXXXXXXXXXXXX$$  $$##$$OO$$++$$@@$$..",
"..$$@@$$++$$OO$$##$$  $$XX$$$$$$$$$$$$XX$$  $$##$$OO$$++$$@@$$..",
"..$$@@$$++$$OO$$##$$  $$XX$$$$$$$$$$$$XX$$  $$##$$OO$$++$$@@$$..",
"..$$@@$$++$$OO$$##$$  $$XX$$oooooooo$$XX$$  $$##$$OO$$++$$@@$$..",
"..$$@@$$++$$OO$$##$$  $$XX$$oooooooo$$XX$$  $$##$$OO$$++$$@@$$..",
"..$$@@$$++$$OO$$##$$  $$XX$$oo$$$$oo$$XX$$  $$##$$OO$$++$$@@$$..",
"..$$@@$$++$$OO$$##$$  $$XX$$oo$$$$oo$$XX$$  $$##$$OO$$++$$@@$$..",
"..$$@@$$++$$OO$$##$$  $$XX$$oo$$$$oo$$XX$$  $$##$$OO$$++$$@@$$..",
"..$$@@$$++$$OO$$##$$  $$XX$$oo$$$$oo$$XX$$  $$##$$OO$$++$$@@$$..",
"..$$@@$$++$$OO$$##$$  $$XX$$oooooooo$$XX$$  $$##$$OO$$++$$@@$$..",
"..$$@@$$++$$OO$$##$$  $$XX$$oooooooo$$XX$$  $$##$$OO$$++$$@@$$..",
"..$$@@$$++$$OO$$##$$  $$XX$$$$$$$$$$$$XX$$  $$##$$OO$$++$$@@$$..",
"..$$@@$$++$$OO$$##$$  $$XX$$$$$$$$$$$$XX$$  $$##$$OO$$++$$@@$$..",
"..$$@@$$++$$OO$$##$$  $$XXXXXXXXXXXXXXXX$$  $$##$$OO$$++$$@@$$..",
"..$$@@$$++$$OO$$##$$  $$XXXXXXXXXXXXXXXX$$  $$##$$OO$$++$$@@$$..",
"..$$@@$$++$$OO$$##$$  $$$$$$$$$$$$$$$$$$$$  $$##$$OO$$++$$@@$$..",
"..$$@@$$++$$OO$$##$$  $$$$$$$$$$$$$$$$$$$$  $$##$$OO$$++$$@@$$..",
"..$$@@$$++$$OO$$##$$                        $$##$$OO$$++$$@@$$..",
"..$$@@$$++$$OO$$##$$                        $$##$$OO$$++$$@@$$..",
"..$$@@$$++$$OO$$##$$$$$$$$$$$$$$$$$$$$$$$$$$$$##$$OO$$++$$@@$$..",
"..$$@@$$++$$OO$$##$$$$$$$$$$$$$$$$$$$$$$$$$$$$##$$OO$$++$$@@$$..",
"..$$@@$$++$$OO$$################################$$OO$$++$$@@$$..",
"..$$@@$$++$$OO$$################################$$OO$$++$$@@$$..",
"..$$@@$$++$$OO$$$$$$$$$$$$$$$$$$$$$$$$$$$$$$$$$$$$OO$$++$$@@$$..",
"..$$@@$$++$$OO$$$$$$$$$$$$$$$$$$$$$$$$$$$$$$$$$$$$OO$$++$$@@$$..",
"..$$@@$$++$$OOOOOOOOOOOOOOOOOOOOOOOOOOOOOOOOOOOOOOOO$$++$$@@$$..",
"..$$@@$$++$$OOOOOOOOOOOOOOOOOOOOOOOOOOOOOOOOOOOOOOOO$$++$$@@$$..",
"..$$@@$$++$$$$$$$$$$$$$$$$$$$$$$$$$$$$$$$$$$$$$$$$$$$$++$$@@$$..",
"..$$@@$$++$$$$$$$$$$$$$$$$$$$$$$$$$$$$$$$$$$$$$$$$$$$$++$$@@$$..",
"..$$@@$$++++++++++++++++++++++++++++++++++++++++++++++++$$@@$$..",
"..$$@@$$++++++++++++++++++++++++++++++++++++++++++++++++$$@@$$..",
"..$$@@$$$$$$$$$$$$$$$$$$$$$$$$$$$$$$$$$$$$$$$$$$$$$$$$$$$$@@$$..",
"..$$@@$$$$$$$$$$$$$$$$$$$$$$$$$$$$$$$$$$$$$$$$$$$$$$$$$$$$@@$$..",
"..$$@@@@@@@@@@@@@@@@@@@@@@@@@@@@@@@@@@@@@@@@@@@@@@@@@@@@@@@@$$..",
"..$$@@@@@@@@@@@@@@@@@@@@@@@@@@@@@@@@@@@@@@@@@@@@@@@@@@@@@@@@$$..",
"..$$$$$$$$$$$$$$$$$$$$$$$$$$$$$$$$$$$$$$$$$$$$$$$$$$$$$$$$$$$$..",
"..$$$$$$$$$$$$$$$$$$$$$$$$$$$$$$$$$$$$$$$$$$$$$$$$$$$$$$$$$$$$..",
"................................................................",
"................................................................"
};
