/* XPM */
static char *_ca231bb6ddd403aab485afd5283f5c98GK6IeJr6Pc8jS12[] = {
/* columns rows colors chars-per-pixel */
"64 64 9 1 ",
"  c #CC0001",
". c #01CC00",
"X c #FB940B",
"o c #FFFF01",
"O c #762CA7",
"+ c #0000FE",
"@ c #03C0C6",
"# c #FE98BF",
"$ c white",
/* pixels */
"oooooooooooooooooooooooooooooooooooooooooooooooooooooooooooooooo",
"oooooooooooooooooooooooooooooooooooooooooooooooooooooooooooooooo",
"oo$$$$$$$$$$$$$$$$$$$$$$$$$$$$$$$$$$$$$$$$$$$$$$$$$$$$$$$$$$$$oo",
"oo$$$$$$$$$$$$$$$$$$$$$$$$$$$$$$$$$$$$$$$$$$$$$$$$$$$$$$$$$$$$oo",
"oo$$........................................................$$oo",
"oo$$........................................................$$oo",
"oo$$..$$$$$$$$$$$$$$$$$$$$$$$$$$$$$$$$$$$$$$$$$$$$$$$$$$$$..$$oo",
"oo$$..$$$$$$$$$$$$$$$$$$$$$$$$$$$$$$$$$$$$$$$$$$$$$$$$$$$$..$$oo",
"oo$$..$$@@@@@@@@@@@@@@@@@@@@@@@@@@@@@@@@@@@@@@@@@@@@@@@@$$..$$oo",
"oo$$..$$@@@@@@@@@@@@@@@@@@@@@@@@@@@@@@@@@@@@@@@@@@@@@@@@$$..$$oo",
"oo$$..$$@@$$$$$$$$$$$$$$$$$$$$$$$$$$$$$$$$$$$$$$$$$$$$@@$$..$$oo",
"oo$$..$$@@$$$$$$$$$$$$$$$$$$$$$$$$$$$$$$$$$$$$$$$$$$$$@@$$..$$oo",
"oo$$..$$@@$$++++++++++++++++++++++++++++++++++++++++$$@@$$..$$oo",
"oo$$..$$@@$$++++++++++++++++++++++++++++++++++++++++$$@@$$..$$oo",
"oo$$..$$@@$$++$$$$$$$$$$$$$$$$$$$$$$$$$$$$$$$$$$$$++$$@@$$..$$oo",
"oo$$..$$@@$$++$$$$$$$$$$$$$$$$$$$$$$$$$$$$$$$$$$$$++$$@@$$..$$oo",
"oo$$..$$@@$$++$$OOOOOOOOOOOOOOOOOOOOOOOOOOOOOOOO$$++$$@@$$..$$oo",
"oo$$..$$@@$$++$$OOOOOOOOOOOOOOOOOOOOOOOOOOOOOOOO$$++$$@@$$..$$oo",
"oo$$..$$@@$$++$$OO$$$$$$$$$$$$$$$$$$$$$$$$$$$$OO$$++$$@@$$..$$oo",
"oo$$..$$@@$$++$$OO$$$$$$$$$$$$$$$$$$$$$$$$$$$$OO$$++$$@@$$..$$oo",
"oo$$..$$@@$$++$$OO$$########################$$OO$$++$$@@$$..$$oo",
"oo$$..$$@@$$++$$OO$$########################$$OO$$++$$@@$$..$$oo",
"oo$$..$$@@$$++$$OO$$##$$$$$$$$$$$$$$$$$$$$##$$OO$$++$$@@$$..$$oo",
"oo$$..$$@@$$++$$OO$$##$$$$$$$$$$$$$$$$$$$$##$$OO$$++$$@@$$..$$oo",
"oo$$..$$@@$$++$$OO$$##$$                $$##$$OO$$++$$@@$$..$$oo",
"oo$$..$$@@$$++$$OO$$##$$                $$##$$OO$$++$$@@$$..$$oo",
"oo$$..$$@@$$++$$OO$$##$$  $$$$$$$$$$$$  $$##$$OO$$++$$@@$$..$$oo",
"oo$$..$$@@$$++$$OO$$##$$  $$$$$$$$$$$$  $$##$$OO$$++$$@@$$..$$oo",
"oo$$..$$@@$$++$$OO$$##$$  $$XXXXXXXX$$  $$##$$OO$$++$$@@$$..$$oo",
"oo$$..$$@@$$++$$OO$$##$$  $$XXXXXXXX$$  $$##$$OO$$++$$@@$$..$$oo",
"oo$$..$$@@$$++$$OO$$##$$  $$XX$$$$XX$$  $$##$$OO$$++$$@@$$..$$oo",
"oo$$..$$@@$$++$$OO$$##$$  $$XX$$$$XX$$  $$##$$OO$$++$$@@$$..$$oo",
"oo$$..$$@@$$++$$OO$$##$$  $$XX$$$$XX$$  $$##$$OO$$++$$@@$$..$$oo",
"oo$$..$$@@$$++$$OO$$##$$  $$XX$$$$XX$$  $$##$$OO$$++$$@@$$..$$oo",
"oo$$..$$@@$$++$$OO$$##$$  $$XXXXXXXX$$  $$##$$OO$$++$$@@$$..$$oo",
"oo$$..$$@@$$++$$OO$$##$$  $$XXXXXXXX$$  $$##$$OO$$++$$@@$$..$$oo",
"oo$$..$$@@$$++$$OO$$##$$  $$$$$$$$$$$$  $$##$$OO$$++$$@@$$..$$oo",
"oo$$..$$@@$$++$$OO$$##$$  $$$$$$$$$$$$  $$##$$OO$$++$$@@$$..$$oo",
"oo$$..$$@@$$++$$OO$$##$$                $$##$$OO$$++$$@@$$..$$oo",
"oo$$..$$@@$$++$$OO$$##$$                $$##$$OO$$++$$@@$$..$$oo",
"oo$$..$$@@$$++$$OO$$##$$$$$$$$$$$$$$$$$$$$##$$OO$$++$$@@$$..$$oo",
"oo$$..$$@@$$++$$OO$$##$$$$$$$$$$$$$$$$$$$$##$$OO$$++$$@@$$..$$oo",
"oo$$..$$@@$$++$$OO$$########################$$OO$$++$$@@$$..$$oo",
"oo$$..$$@@$$++$$OO$$########################$$OO$$++$$@@$$..$$oo",
"oo$$..$$@@$$++$$OO$$$$$$$$$$$$$$$$$$$$$$$$$$$$OO$$++$$@@$$..$$oo",
"oo$$..$$@@$$++$$OO$$$$$$$$$$$$$$$$$$$$$$$$$$$$OO$$++$$@@$$..$$oo",
"oo$$..$$@@$$++$$OOOOOOOOOOOOOOOOOOOOOOOOOOOOOOOO$$++$$@@$$..$$oo",
"oo$$..$$@@$$++$$OOOOOOOOOOOOOOOOOOOOOOOOOOOOOOOO$$++$$@@$$..$$oo",
"oo$$..$$@@$$++$$$$$$$$$$$$$$$$$$$$$$$$$$$$$$$$$$$$++$$@@$$..$$oo",
"oo$$..$$@@$$++$$$$$$$$$$$$$$$$$$$$$$$$$$$$$$$$$$$$++$$@@$$..$$oo",
"oo$$..$$@@$$++++++++++++++++++++++++++++++++++++++++$$@@$$..$$oo",
"oo$$..$$@@$$++++++++++++++++++++++++++++++++++++++++$$@@$$..$$oo",
"oo$$..$$@@$$$$$$$$$$$$$$$$$$$$$$$$$$$$$$$$$$$$$$$$$$$$@@$$..$$oo",
"oo$$..$$@@$$$$$$$$$$$$$$$$$$$$$$$$$$$$$$$$$$$$$$$$$$$$@@$$..$$oo",
"oo$$..$$@@@@@@@@@@@@@@@@@@@@@@@@@@@@@@@@@@@@@@@@@@@@@@@@$$..$$oo",
"oo$$..$$@@@@@@@@@@@@@@@@@@@@@@@@@@@@@@@@@@@@@@@@@@@@@@@@$$..$$oo",
"oo$$..$$$$$$$$$$$$$$$$$$$$$$$$$$$$$$$$$$$$$$$$$$$$$$$$$$$$..$$oo",
"oo$$..$$$$$$$$$$$$$$$$$$$$$$$$$$$$$$$$$$$$$$$$$$$$$$$$$$$$..$$oo",
"oo$$........................................................$$oo",
"oo$$........................................................$$oo",
"oo$$$$$$$$$$$$$$$$$$$$$$$$$$$$$$$$$$$$$$$$$$$$$$$$$$$$$$$$$$$$oo",
"oo$$$$$$$$$$$$$$$$$$$$$$$$$$$$$$$$$$$$$$$$$$$$$$$$$$$$$$$$$$$$oo",
"oooooooooooooooooooooooooooooooooooooooooooooooooooooooooooooooo",
"oooooooooooooooooooooooooooooooooooooooooooooooooooooooooooooooo"
};
