/* XPM */
static char *f6968a18d2a84036e5f51d80ce5b2a525dWjXJC5DK3IghVw[] = {
/* columns rows colors chars-per-pixel */
"64 64 9 1 ",
"  c #CC0001",
". c #01CC00",
"X c #FB940B",
"o c #FFFF01",
"O c #762CA7",
"+ c #0000FE",
"@ c #03C0C6",
"# c #FE98BF",
"$ c white",
/* pixels */
"XXXXXXXXXXXXXXXXXXXXXXXXXXXXXXXXXXXXXXXXXXXXXXXXXXXXXXXXXXXXXXXX",
"XXXXXXXXXXXXXXXXXXXXXXXXXXXXXXXXXXXXXXXXXXXXXXXXXXXXXXXXXXXXXXXX",
"XX$$$$$$$$$$$$$$$$$$$$$$$$$$$$$$$$$$$$$$$$$$$$$$$$$$$$$$$$$$$$XX",
"XX$$$$$$$$$$$$$$$$$$$$$$$$$$$$$$$$$$$$$$$$$$$$$$$$$$$$$$$$$$$$XX",
"XX$$oooooooooooooooooooooooooooooooooooooooooooooooooooooooo$$XX",
"XX$$oooooooooooooooooooooooooooooooooooooooooooooooooooooooo$$XX",
"XX$$oo$$$$$$$$$$$$$$$$$$$$$$$$$$$$$$$$$$$$$$$$$$$$$$$$$$$$oo$$XX",
"XX$$oo$$$$$$$$$$$$$$$$$$$$$$$$$$$$$$$$$$$$$$$$$$$$$$$$$$$$oo$$XX",
"XX$$oo$$................................................$$oo$$XX",
"XX$$oo$$................................................$$oo$$XX",
"XX$$oo$$..$$$$$$$$$$$$$$$$$$$$$$$$$$$$$$$$$$$$$$$$$$$$..$$oo$$XX",
"XX$$oo$$..$$$$$$$$$$$$$$$$$$$$$$$$$$$$$$$$$$$$$$$$$$$$..$$oo$$XX",
"XX$$oo$$..$$@@@@@@@@@@@@@@@@@@@@@@@@@@@@@@@@@@@@@@@@$$..$$oo$$XX",
"XX$$oo$$..$$@@@@@@@@@@@@@@@@@@@@@@@@@@@@@@@@@@@@@@@@$$..$$oo$$XX",
"XX$$oo$$..$$@@$$$$$$$$$$$$$$$$$$$$$$$$$$$$$$$$$$$$@@$$..$$oo$$XX",
"XX$$oo$$..$$@@$$$$$$$$$$$$$$$$$$$$$$$$$$$$$$$$$$$$@@$$..$$oo$$XX",
"XX$$oo$$..$$@@$$++++++++++++++++++++++++++++++++$$@@$$..$$oo$$XX",
"XX$$oo$$..$$@@$$++++++++++++++++++++++++++++++++$$@@$$..$$oo$$XX",
"XX$$oo$$..$$@@$$++$$$$$$$$$$$$$$$$$$$$$$$$$$$$++$$@@$$..$$oo$$XX",
"XX$$oo$$..$$@@$$++$$$$$$$$$$$$$$$$$$$$$$$$$$$$++$$@@$$..$$oo$$XX",
"XX$$oo$$..$$@@$$++$$OOOOOOOOOOOOOOOOOOOOOOOO$$++$$@@$$..$$oo$$XX",
"XX$$oo$$..$$@@$$++$$OOOOOOOOOOOOOOOOOOOOOOOO$$++$$@@$$..$$oo$$XX",
"XX$$oo$$..$$@@$$++$$OO$$$$$$$$$$$$$$$$$$$$OO$$++$$@@$$..$$oo$$XX",
"XX$$oo$$..$$@@$$++$$OO$$$$$$$$$$$$$$$$$$$$OO$$++$$@@$$..$$oo$$XX",
"XX$$oo$$..$$@@$$++$$OO$$################$$OO$$++$$@@$$..$$oo$$XX",
"XX$$oo$$..$$@@$$++$$OO$$################$$OO$$++$$@@$$..$$oo$$XX",
"XX$$oo$$..$$@@$$++$$OO$$##$$$$$$$$$$$$##$$OO$$++$$@@$$..$$oo$$XX",
"XX$$oo$$..$$@@$$++$$OO$$##$$$$$$$$$$$$##$$OO$$++$$@@$$..$$oo$$XX",
"XX$$oo$$..$$@@$$++$$OO$$##$$        $$##$$OO$$++$$@@$$..$$oo$$XX",
"XX$$oo$$..$$@@$$++$$OO$$##$$        $$##$$OO$$++$$@@$$..$$oo$$XX",
"XX$$oo$$..$$@@$$++$$OO$$##$$  $$$$  $$##$$OO$$++$$@@$$..$$oo$$XX",
"XX$$oo$$..$$@@$$++$$OO$$##$$  $$$$  $$##$$OO$$++$$@@$$..$$oo$$XX",
"XX$$oo$$..$$@@$$++$$OO$$##$$  $$$$  $$##$$OO$$++$$@@$$..$$oo$$XX",
"XX$$oo$$..$$@@$$++$$OO$$##$$  $$$$  $$##$$OO$$++$$@@$$..$$oo$$XX",
"XX$$oo$$..$$@@$$++$$OO$$##$$        $$##$$OO$$++$$@@$$..$$oo$$XX",
"XX$$oo$$..$$@@$$++$$OO$$##$$        $$##$$OO$$++$$@@$$..$$oo$$XX",
"XX$$oo$$..$$@@$$++$$OO$$##$$$$$$$$$$$$##$$OO$$++$$@@$$..$$oo$$XX",
"XX$$oo$$..$$@@$$++$$OO$$##$$$$$$$$$$$$##$$OO$$++$$@@$$..$$oo$$XX",
"XX$$oo$$..$$@@$$++$$OO$$################$$OO$$++$$@@$$..$$oo$$XX",
"XX$$oo$$..$$@@$$++$$OO$$################$$OO$$++$$@@$$..$$oo$$XX",
"XX$$oo$$..$$@@$$++$$OO$$$$$$$$$$$$$$$$$$$$OO$$++$$@@$$..$$oo$$XX",
"XX$$oo$$..$$@@$$++$$OO$$$$$$$$$$$$$$$$$$$$OO$$++$$@@$$..$$oo$$XX",
"XX$$oo$$..$$@@$$++$$OOOOOOOOOOOOOOOOOOOOOOOO$$++$$@@$$..$$oo$$XX",
"XX$$oo$$..$$@@$$++$$OOOOOOOOOOOOOOOOOOOOOOOO$$++$$@@$$..$$oo$$XX",
"XX$$oo$$..$$@@$$++$$$$$$$$$$$$$$$$$$$$$$$$$$$$++$$@@$$..$$oo$$XX",
"XX$$oo$$..$$@@$$++$$$$$$$$$$$$$$$$$$$$$$$$$$$$++$$@@$$..$$oo$$XX",
"XX$$oo$$..$$@@$$++++++++++++++++++++++++++++++++$$@@$$..$$oo$$XX",
"XX$$oo$$..$$@@$$++++++++++++++++++++++++++++++++$$@@$$..$$oo$$XX",
"XX$$oo$$..$$@@$$$$$$$$$$$$$$$$$$$$$$$$$$$$$$$$$$$$@@$$..$$oo$$XX",
"XX$$oo$$..$$@@$$$$$$$$$$$$$$$$$$$$$$$$$$$$$$$$$$$$@@$$..$$oo$$XX",
"XX$$oo$$..$$@@@@@@@@@@@@@@@@@@@@@@@@@@@@@@@@@@@@@@@@$$..$$oo$$XX",
"XX$$oo$$..$$@@@@@@@@@@@@@@@@@@@@@@@@@@@@@@@@@@@@@@@@$$..$$oo$$XX",
"XX$$oo$$..$$$$$$$$$$$$$$$$$$$$$$$$$$$$$$$$$$$$$$$$$$$$..$$oo$$XX",
"XX$$oo$$..$$$$$$$$$$$$$$$$$$$$$$$$$$$$$$$$$$$$$$$$$$$$..$$oo$$XX",
"XX$$oo$$................................................$$oo$$XX",
"XX$$oo$$................................................$$oo$$XX",
"XX$$oo$$$$$$$$$$$$$$$$$$$$$$$$$$$$$$$$$$$$$$$$$$$$$$$$$$$$oo$$XX",
"XX$$oo$$$$$$$$$$$$$$$$$$$$$$$$$$$$$$$$$$$$$$$$$$$$$$$$$$$$oo$$XX",
"XX$$oooooooooooooooooooooooooooooooooooooooooooooooooooooooo$$XX",
"XX$$oooooooooooooooooooooooooooooooooooooooooooooooooooooooo$$XX",
"XX$$$$$$$$$$$$$$$$$$$$$$$$$$$$$$$$$$$$$$$$$$$$$$$$$$$$$$$$$$$$XX",
"XX$$$$$$$$$$$$$$$$$$$$$$$$$$$$$$$$$$$$$$$$$$$$$$$$$$$$$$$$$$$$XX",
"XXXXXXXXXXXXXXXXXXXXXXXXXXXXXXXXXXXXXXXXXXXXXXXXXXXXXXXXXXXXXXXX",
"XXXXXXXXXXXXXXXXXXXXXXXXXXXXXXXXXXXXXXXXXXXXXXXXXXXXXXXXXXXXXXXX"
};
