/* XPM */
static char *c82489d4f0314a33ebba1ec1c59c524accXhsryOTIWVHbli[] = {
/* columns rows colors chars-per-pixel */
"64 64 114 2 ",
"   c #ED230D",
".  c #ED240E",
"X  c #ED250F",
"o  c #ED2610",
"O  c #ED2611",
"+  c #ED2712",
"@  c #EE2A15",
"#  c #EE2B16",
"$  c #EE2C16",
"%  c #EE2E19",
"&  c #EE311C",
"*  c #EF3926",
"=  c #EF3A27",
"-  c #EF3B28",
";  c #EF3E2A",
":  c #EF3F2B",
">  c #F0422F",
",  c #F04330",
"<  c #F04735",
"1  c #F04836",
"2  c #F04B39",
"3  c #F04C3A",
"4  c #F04C3B",
"5  c #F04D3C",
"6  c #F14E3C",
"7  c #F14F3D",
"8  c #F1503E",
"9  c #F1513F",
"0  c #F15240",
"q  c #F15241",
"w  c #F15443",
"e  c #F15544",
"r  c #F15746",
"t  c #F15847",
"y  c #F15848",
"u  c #F15949",
"i  c #F25D4D",
"p  c #F25E4E",
"a  c #F26454",
"s  c #F3695A",
"d  c #F36A5B",
"f  c #F36B5C",
"g  c #F36B5D",
"h  c #F36C5E",
"j  c #F36D5F",
"k  c #F36E60",
"l  c #F37162",
"z  c #F37263",
"x  c #F47D70",
"c  c #F47E71",
"v  c #F58073",
"b  c #F58174",
"n  c #F58275",
"m  c #F5867A",
"M  c #F5877B",
"N  c #F5887C",
"B  c #F5897D",
"V  c #F58A7E",
"C  c #F58B7F",
"Z  c #F68B80",
"A  c #F68F84",
"S  c #F69085",
"D  c #F6968B",
"F  c #F7998F",
"G  c #F8A9A0",
"H  c #F8AAA1",
"J  c #F8AAA2",
"K  c #F8ACA4",
"L  c #F8ADA5",
"P  c #FABDB6",
"I  c #FABDB7",
"U  c #FABEB8",
"Y  c #FABFB9",
"T  c #FAC0BA",
"R  c #FAC1BB",
"E  c #FAC2BC",
"W  c #FAC3BD",
"Q  c #FAC6C0",
"!  c #FAC7C1",
"~  c #FBCAC5",
"^  c #FBCBC6",
"/  c #FBCFCA",
"(  c #FBD0CB",
")  c #FBD0CC",
"_  c #FBD3CF",
"`  c #FBD4D0",
"'  c #FCDCD9",
"]  c #FCE0DD",
"[  c #FDE1DE",
"{  c #FDE2DF",
"}  c #FDE6E3",
"|  c #FDE8E5",
" . c #FDE9E6",
".. c #FDE9E7",
"X. c #FDEAE8",
"o. c #FDEBE9",
"O. c #FEEDEB",
"+. c #FEEEEC",
"@. c #FEF0EF",
"#. c #FEF1F0",
"$. c #FEF2F1",
"%. c #FEF3F2",
"&. c #FEF4F3",
"*. c #FEF5F4",
"=. c #FEF6F5",
"-. c #FEF6F6",
";. c #FEF8F7",
":. c #FFFAF9",
">. c #FFFBFA",
",. c #FFFCFB",
"<. c #FFFCFC",
"1. c #FFFDFD",
"2. c #FFFEFE",
"3. c white",
/* pixels */
"3.3.3.3.3.3.3.3.3.3.3.3.3.3.3.3.3.3.3.3.3.3.3.3.3.3.3.3.3.3.3.3.3.3.3.3.3.3.3.3.3.3.3.3.3.3.3.3.3.3.3.3.3.3.3.3.3.3.3.3.3.3.3.3.",
"3.3.3.3.3.3.3.3.3.3.3.3.3.3.3.3.3.3.3.3.3.3.3.3.3.3.3.3.3.F 3.3.3.3.3.3.3.3.3.3.3.3.3.3.3.3.3.3.3.3.3.3.3.3.3.3.3.3.3.3.3.3.3.3.",
"3.3.3.3.3.3.3.3.3.3.3.3.3.3.3.3.3.3.3.3.3.3.3.3.3.3.3.3.3.y z 3.3.3.3.3.3.3.3.3.3.3.3.3.3.3.3.3.3.3.3.3.3.3.3.3.3.3.3.3.3.3.3.3.",
"3.3.3.3.3.3.3.3.3.3.3.3.3.3.3.3.3.3.3.3.3.3.3.3.3.3.3.3.3.h   d :.3.3.3.3.3.3.3.3.3.3.3.:.3.3.3.3.3.3.3.3.3.3.3.3.3.3.3.3.3.3.3.",
"3.3.3.3.3.3.3.3.3.3.3.3.3.3.3.3.3.3.3.3.3.3.3.3.3.3.3.3.3.n     a ;.3.3.3.3.3.3.3.3.3.3.K / 3.3.3.3.3.3.3.3.3.3.3.3.3.3.3.3.3.3.",
"3.3.3.3.3.3.3.3.3.3.3.3.3.3.3.3.3.3.3.3.3.3.3.3.3.3.3.3.3.D       p -.3.3.3.3.3.3.3.3.3.1 A 3.3.3.3.3.3.3.3.3.3.3.3.3.3.3.3.3.3.",
"3.3.3.3.3.3.3.3.3.3.3.3.3.3.) -.3.3.3.3.3.3.3.3.3.3.3.3.3.H         t &.3.3.3.3.3.3.3.Y   6 3.3.3.3.3.3.3.3.3.3.3.3.3.3.3.3.3.3.",
"3.3.3.3.3.3.3.3.3.3.3.3.3.3.K + e Z W -.3.3.3.3.3.3.3.3.3.Y           q @.3.3.3.3.3.3.y   X o.3.3.3.3.3.3.3.3.3.3.3.3.3.3.3.3.3.",
"3.3.3.3.3.3.3.3.3.3.3.3.3.3.3.h       + q V T &.3.3.3.3.3.`             4 +.3.3.3.3.)       K 3.3.3.3.3.3.3.3.3.3.3.3.3.3.3.3.3.",
"3.3.3.3.3.3.3.3.3.3.3.3.3.3.3.@.-             + 9 M I $.3.|               < o.3.3.3.f       h 3.3.3.3.3.3.3.3.3.3.3.3.3.3.3.3.3.",
"3.3.3.3.3.3.3.3.3.3.3.3.3.3.3.3.! X                   X 6 n                 , } 3.] X       & 3.3.3.3.3.3.3.3.3.3.3.3.3.3.3.3.3.",
"3.3.3.3.3.3.3.3.3.3.3.3.3.3.3.3.3.V                                           ; ] x           ^ 3.3.3.3.3.3.3.3.3.3.3.3.3.3.3.3.",
"3.3.3.3.3.3.3.3.3.3.3.3.3.3.3.3.3.:.6                                           * #           V 3.3.3.3.3.3.3.3.3.3.3.3.3.3.3.3.",
"3.3.3.3.3.3.3.3.3.3.3.3.3.3.3.3.3.3.' #                                                       4 3.3.3.3.3.3.3.3.3.3.3.3.3.3.3.3.",
"3.3.3.3.3.3.3.3.3.3.3.3.3.3.3.3.3.:.! q                                                         | 3.3.3.3.3.3.3.K ( 3.3.3.3.3.3.",
"3.3.3.3.3.3.3.3.3.3.3.3.3.3.| H d %                                                             H 3.3.3.3.3.@.h + -.3.3.3.3.3.3.",
"3.3.3.3.3.3.3.3.3.3.3.^ Z 4                                                                     d 3.3.3.3.! -   w 3.3.3.3.3.3.3.",
"3.3.3.3.3.3.3.o.K k &                                                                           % :.3.:.V X     Z 3.3.3.3.3.3.3.",
"3.3.3.3.( S 9 X                                                                                   ! ' 6         W 3.3.3.3.3.3.3.",
"3.3.3.:.K 1                                                                                       q #         + -.3.3.3.3.3.3.3.",
"3.3.3.3.3.3.Y y                                                                                               q 3.3.3.3.3.3.3.3.",
"3.3.3.3.3.3.3.3.) f X                                                                                         V 3.3.3.3.3.3.3.3.",
"3.3.3.3.3.3.3.3.3.3.] x #                                                                                     T 3.3.3.3.3.3.3.3.",
"3.3.3.3.3.3.3.3.3.3.3.] *                                                                                   + $.3.3.3.3.3.3.3.3.",
"3.3.3.3.3.3.3.3.3.3.} ;                                                                                     9 3.3.3.3.3.3.3.3.3.",
"3.3.3.3.3.3.3.3.3.| >                                                                                       M 3.3.3.3.3.3.3.3.3.",
"3.3.3.3.3.3.3.3.O.<                                                                                         I 3.3.3.3.3.3.3.3.3.",
"3.3.3.3.3.3.3.@.4                                                                                         X $.3.3.3.3.3.3.3.3.3.",
"3.3.3.3.3.3.&.q                                                                                           6 3.3.3.3.3.3.3.3.3.3.",
"3.3.3.3.3.-.t                                                                                             n | ` Y H D n h y F 3.",
"3.3.3.3.;.p                                                                                                               z 3.3.",
"3.3.3.:.a                                                                                                               d 3.3.3.",
"3.3.3.f                                                                                                               a :.3.3.3.",
"3.3.z                                                                                                               p ;.3.3.3.3.",
"3.F t h n D H Y ) | v                                                                                             e -.3.3.3.3.3.",
"3.3.3.3.3.3.3.3.3.3.6                                                                                           q &.3.3.3.3.3.3.",
"3.3.3.3.3.3.3.3.3.$.X                                                                                         4 @.3.3.3.3.3.3.3.",
"3.3.3.3.3.3.3.3.3.I                                                                                         < O.3.3.3.3.3.3.3.3.",
"3.3.3.3.3.3.3.3.3.M                                                                                       > | 3.3.3.3.3.3.3.3.3.",
"3.3.3.3.3.3.3.3.3.9                                                                                     ; } 3.3.3.3.3.3.3.3.3.3.",
"3.3.3.3.3.3.3.3.$.+                                                                                   * ] 3.3.3.3.3.3.3.3.3.3.3.",
"3.3.3.3.3.3.3.3.Y                                                                                     # x ] 3.3.3.3.3.3.3.3.3.3.",
"3.3.3.3.3.3.3.3.V                                                                                         X f ) 3.3.3.3.3.3.3.3.",
"3.3.3.3.3.3.3.3.q                                                                                               y Y 3.3.3.3.3.3.",
"3.3.3.3.3.3.3.-.+         # q                                                                                       1 K :.3.3.3.",
"3.3.3.3.3.3.3.W         6 ' !                                                                                   X 6 A / 3.3.3.3.",
"3.3.3.3.3.3.3.V     X V :.3.:.%                                                                           & h K o.3.3.3.3.3.3.3.",
"3.3.3.3.3.3.3.w   - ! 3.3.3.3.d                                                                     2 V ^ ,.3.3.3.3.3.3.3.3.3.3.",
"3.3.3.3.3.3.-.+ h @.3.3.3.3.3.H                                                             % d H | 3.3.3.3.3.3.3.3.3.3.3.3.3.3.",
"3.3.3.3.3.3.( K 3.3.3.3.3.3.3.|                                                         q ! :.3.3.3.3.3.3.3.3.3.3.3.3.3.3.3.3.3.",
"3.3.3.3.3.3.3.3.3.3.3.3.3.3.3.3.4                                                       $ ' 3.3.3.3.3.3.3.3.3.3.3.3.3.3.3.3.3.3.",
"3.3.3.3.3.3.3.3.3.3.3.3.3.3.3.3.Z           # *                                           6 :.3.3.3.3.3.3.3.3.3.3.3.3.3.3.3.3.3.",
"3.3.3.3.3.3.3.3.3.3.3.3.3.3.3.3.^           x ] ;                                           V 3.3.3.3.3.3.3.3.3.3.3.3.3.3.3.3.3.",
"3.3.3.3.3.3.3.3.3.3.3.3.3.3.3.3.3.&       X ] 3.} >                 v 6 X                   X ! 3.3.3.3.3.3.3.3.3.3.3.3.3.3.3.3.",
"3.3.3.3.3.3.3.3.3.3.3.3.3.3.3.3.3.h       f 3.3.3.| <               | 3.$.I M 9 +             - @.3.3.3.3.3.3.3.3.3.3.3.3.3.3.3.",
"3.3.3.3.3.3.3.3.3.3.3.3.3.3.3.3.3.K       ) 3.3.3.3.O.4             ` 3.3.3.3.3.$.Y V q +       h 3.3.3.3.3.3.3.3.3.3.3.3.3.3.3.",
"3.3.3.3.3.3.3.3.3.3.3.3.3.3.3.3.3.o.X   y 3.3.3.3.3.3.@.q           Y 3.3.3.3.3.3.3.3.3.-.T V w + K 3.3.3.3.3.3.3.3.3.3.3.3.3.3.",
"3.3.3.3.3.3.3.3.3.3.3.3.3.3.3.3.3.3.9   Y 3.3.3.3.3.3.3.&.t         H 3.3.3.3.3.3.3.3.3.3.3.3.3.-./ 3.3.3.3.3.3.3.3.3.3.3.3.3.3.",
"3.3.3.3.3.3.3.3.3.3.3.3.3.3.3.3.3.3.S 1 3.3.3.3.3.3.3.3.3.-.p       D 3.3.3.3.3.3.3.3.3.3.3.3.3.3.3.3.3.3.3.3.3.3.3.3.3.3.3.3.3.",
"3.3.3.3.3.3.3.3.3.3.3.3.3.3.3.3.3.3.( K 3.3.3.3.3.3.3.3.3.3.;.a     n 3.3.3.3.3.3.3.3.3.3.3.3.3.3.3.3.3.3.3.3.3.3.3.3.3.3.3.3.3.",
"3.3.3.3.3.3.3.3.3.3.3.3.3.3.3.3.3.3.3.:.3.3.3.3.3.3.3.3.3.3.3.:.d   h 3.3.3.3.3.3.3.3.3.3.3.3.3.3.3.3.3.3.3.3.3.3.3.3.3.3.3.3.3.",
"3.3.3.3.3.3.3.3.3.3.3.3.3.3.3.3.3.3.3.3.3.3.3.3.3.3.3.3.3.3.3.3.3.z t 3.3.3.3.3.3.3.3.3.3.3.3.3.3.3.3.3.3.3.3.3.3.3.3.3.3.3.3.3.",
"3.3.3.3.3.3.3.3.3.3.3.3.3.3.3.3.3.3.3.3.3.3.3.3.3.3.3.3.3.3.3.3.3.3.F 3.3.3.3.3.3.3.3.3.3.3.3.3.3.3.3.3.3.3.3.3.3.3.3.3.3.3.3.3.",
"3.3.3.3.3.3.3.3.3.3.3.3.3.3.3.3.3.3.3.3.3.3.3.3.3.3.3.3.3.3.3.3.3.3.3.3.3.3.3.3.3.3.3.3.3.3.3.3.3.3.3.3.3.3.3.3.3.3.3.3.3.3.3.3."
};
