/* XPM */
static char *_5edc3b59b53498287c2e2dee8ab9d88dxpY8DhuEgKP7eDb[] = {
/* columns rows colors chars-per-pixel */
"64 64 2 1 ",
"  c white",
". c #00A0FE",
/* pixels */
"                                                                ",
"                                                                ",
"                                                                ",
"                                                                ",
"                                                                ",
"                                                                ",
"                                                                ",
"                                                                ",
"        ................................................        ",
"        ................................................        ",
"        ................................................        ",
"        ................................................        ",
"        ................................................        ",
"        ................................................        ",
"        ................................................        ",
"        ................................................        ",
"        ................................................        ",
"        ................................................        ",
"        ................................................        ",
"        ................................................        ",
"        ................................................        ",
"        ................................................        ",
"        ................................................        ",
"        ................................................        ",
"        ................................................        ",
"        ................................................        ",
"        ................................................        ",
"        ................................................        ",
"        ................................................        ",
"        ................................................        ",
"        ................................................        ",
"        ................................................        ",
"        ................................................        ",
"        ................................................        ",
"        ................................................        ",
"        ................................................        ",
"        ................................................        ",
"        ................................................        ",
"        ................................................        ",
"        ................................................        ",
"        ................................................        ",
"        ................................................        ",
"        ................................................        ",
"        ................................................        ",
"        ................................................        ",
"        ................................................        ",
"        ................................................        ",
"        ................................................        ",
"        ................................................        ",
"        ................................................        ",
"        ................................................        ",
"        ................................................        ",
"        ................................................        ",
"        ................................................        ",
"        ................................................        ",
"        ................................................        ",
"                                                                ",
"                                                                ",
"                                                                ",
"                                                                ",
"                                                                ",
"                                                                ",
"                                                                ",
"                                                                "
};
